<svg fill="none" stroke="#F7DF1E" viewBox="0 0 24 24" xmlns="http://www.w3.org/2000/svg" class="w-6 h-6 text-cool-gray-400 dark:text-cool-gray-600 transition duration-200 ease-out"><g transform="translate(12 12) scale(1.2) translate(-12 -12)"><g transform="translate(10 10) scale(0.58) translate(-11 -12)" stroke="none"><path fill="transparent" d="M0 0h21.503v24H0z"></path><path d="M13.507 18.936l-2.04-1.92c-.7-.659-1.403-1.317-2.108-1.983v3.097c0 .43.003.86.007 1.289 0 .049-.007.09-.007 .126v2.04c0 .834 0 1.557.003 2.02l.278 .163c.719 .3 1.434 .307 2.151 .033l4.264-2.469c-.358-.326-1.395-1.31-2.548-2.396zM6.159 19.39v-1.091L6.163 2.23v-.002L1.26 5.059C.421 5.647.002 6.482.002 7.553c0 2.944.006 5.888-.002 8.831-.003 1.08.398 1.913 1.212 2.517l4.946 2.856v-2.318-.05z" fill="#676767"></path><path d="M18.642 4.137l1.672 .966c.785 .58 1.187 1.385 1.188 2.41v8.974c0 1-.385 1.79-1.133 2.367l-1.423 .822h-.004c-.097-.097-6.384-6.375-6.513-6.386.044-.044.56-.582 1.278-1.33L20.3 5.097l-1.658-.96z" fill="url(#logo_svg__paint0_linear_5175_84899)"></path><path d="M17.335 3.383L11.849 .216c-.718-.29-1.455-.29-2.219 .011l-.27 .139s0 10.346 .041 11.106c.341-.346 7.808-7.96 7.934-8.09z" fill="url(#logo_svg__paint1_linear_5175_84899)"></path><defs><linearGradient id="logo_svg__paint0_linear_5175_84899" x1="19.854" y1="4.363" x2="11.579" y2="13.111" gradientUnits="userSpaceOnUse"><stop stop-color="#3BC2D7"></stop><stop offset="0.74" stop-color="#1D9DB1"></stop></linearGradient><linearGradient id="logo_svg__paint1_linear_5175_84899" x1="19.854" y1="4.363" x2="11.579" y2="13.111" gradientUnits="userSpaceOnUse"><stop stop-color="#3BC2D7"></stop><stop offset="0.74" stop-color="#1D9DB1"></stop></linearGradient></defs></g><path d="M21 21l-6-6m2-5a7 7 0 11-14 0 7 7 0 0114 0z" stroke-linecap="round" stroke-linejoin="round" stroke-width="2"></path></g></svg>